<svg width="1314" height="480" viewBox="0 0 1314 480" fill="#1e1e1e" xmlns="http://www.w3.org/2000/svg">
<path d="M145.55 405.62C136.99 390.47 116.21 378.84 116.21 378.84C116.21 378.84 119.34 396.37 120.51 407.27C120.9 410.85 122.15 414.57 123.93 418.23C120.99 415.74 117.89 413.42 114.65 411.4C109.78 405.86 105.16 400.11 100.76 394.19C104.1 386.14 110.15 368.86 106.99 355.71C102.94 338.81 86.12 321.76 86.12 321.76C86.12 321.76 84.27 339.38 82.38 350.13C81.76 353.66 81.94 357.56 82.64 361.57C80.43 358.26 78.01 355.07 75.36 352.15C72.23 345.61 69.39 338.93 66.86 332.13C72.28 325.46 83.05 310.6 83.66 297.05C84.44 279.76 72.96 258.68 72.96 258.68C72.96 258.68 66.29 274.97 61.48 284.68C59.9 287.87 58.99 291.65 58.55 295.68C57.5 292.4 56.27 289.16 54.83 286.05C53.54 278.17 52.54 270.44 51.8 262.86C58.98 257.94 73.15 246.97 77.44 234.39C82.99 218.11 77.77 194.7 77.77 194.7C77.77 194.7 66.81 208.34 59.48 216.23C57.07 218.82 55.14 222.17 53.61 225.89C53.47 221.25 53 216.58 52.05 212.08C51.88 211.28 51.68 210.49 51.46 209.69C51.97 204.22 52.66 198.84 53.52 193.54C59.96 191.68 78.89 185.39 87.01 173.92C96.41 160.64 97.79 137.96 97.79 137.96C97.79 137.96 84.13 147.37 75.31 152.54C72.41 154.24 69.76 156.75 67.37 159.71C68.47 155.46 69.27 151.09 69.59 146.74C69.75 144.47 69.7 142.11 69.49 139.71C70.83 136.72 72.26 133.76 73.74 130.83C73.98 130.62 74.27 130.36 74.6 130.07C79.41 130.19 99.81 130.14 110.72 121.6C122.55 112.33 129.64 92.61 129.64 92.61C129.64 92.61 114.99 97.31 105.76 99.56C102.73 100.3 99.71 101.82 96.8 103.81C98.88 100.34 100.72 96.68 102.12 92.91C102.99 90.57 103.61 88.05 104.05 85.43C106.93 82.03 109.94 78.68 113.05 75.37C118.25 76.97 134.19 81.24 144.85 77.08C157.13 72.29 167.93 57.54 167.93 57.54C167.93 57.54 154.38 57.8 146.02 57.36C143.27 57.22 140.35 57.73 137.4 58.67C140.01 56.28 142.46 53.68 144.56 50.88C156.83 34.51 155.36 0 155.36 0C155.36 0 126.69 19.12 120.44 41.52C117.75 51.15 113.35 65.97 111.38 72.56C109.11 74.89 106.88 77.25 104.71 79.68C106.13 58.53 97.77 33.47 97.77 33.47C97.77 33.47 72.64 63.82 72.93 90.48C73.05 101.16 72.96 117.25 72.9 125.78C71.45 128.55 70.06 131.36 68.71 134.2C64.42 111.19 47.34 86.3 47.34 86.3C47.34 86.3 30.57 125.6 38.84 153.22C42.37 164.99 47.5 183.23 49.83 191.55C49.21 194.68 48.66 197.84 48.15 201.01C37.49 178.45 12.1 157.52 12.1 157.52C12.1 157.52 6.74 202.38 23.09 227.89C30.44 239.35 41.66 257.54 46 264.59C46.27 267.67 46.61 270.77 46.99 273.87C30.73 254.81 0 241.59 0 241.59C0 241.59 7.34 286.39 30.02 306.32C40.05 315.13 55.49 329.17 61.79 334.91C62.86 337.82 63.99 340.7 65.15 343.55C44.28 330.06 11.74 326.16 11.74 326.16C11.74 326.16 31.18 367.28 58.36 380C69.47 385.2 86.23 393.39 94.71 397.55C96.58 400.19 98.48 402.79 100.43 405.34C76.97 399.09 46.42 404.36 46.42 404.36C46.42 404.36 76.39 438.46 105.86 442.96C116.77 444.63 132.79 447.33 142.58 449C157.23 460.98 173.06 471.21 189.75 479.42C195.69 479.21 201.64 479.09 207.58 479.04C187.23 470.47 167.91 458.93 150.22 445.04C151.19 436.55 152.34 417.64 145.55 405.62Z"/>
<path d="M284.688 131.71H293.858V113.16H298.478C301.068 113.16 302.118 113.51 303.168 115.47L309.538 128C311.148 131.15 312.758 131.71 316.468 131.71H321.298V123.94H320.388C318.848 123.94 317.658 123.8 316.888 122.33L312.058 112.74C311.148 110.92 309.608 110.22 309.608 110.22V110.08C311.708 109.66 317.868 105.95 317.868 96.99C317.868 87.61 311.498 82.01 302.398 82.01H280.138V89.78H284.688V131.71ZM293.858 105.32V89.78H301.278C305.758 89.78 308.488 92.58 308.488 97.48C308.488 102.45 305.758 105.32 301.138 105.32H293.858ZM323.246 131.71H331.156C334.446 131.71 335.636 130.31 335.916 126.95L337.526 104.83C337.806 101.54 337.596 97.06 337.596 97.06H337.736C337.736 97.06 339.206 102.03 340.466 104.83L348.726 123.17H356.146L364.406 104.83C365.666 102.03 367.136 97.13 367.136 97.13H367.276C367.276 97.13 367.066 101.54 367.346 104.83L369.026 126.95C369.306 130.31 370.426 131.71 373.716 131.71H381.626V123.94H379.456C378.476 123.94 377.986 123.38 377.916 122.4L374.696 82.01H365.176L354.956 105.67C353.766 108.54 352.506 112.32 352.506 112.32H352.366C352.366 112.32 351.106 108.54 349.916 105.67L339.696 82.01H330.176L326.956 122.4C326.886 123.38 326.396 123.94 325.416 123.94H323.246V131.71ZM385.554 131.71H404.174V123.94H399.204V89.78H404.174V82.01H385.554V89.78H390.524V123.94H385.554V131.71ZM425.09 131.71H434.26V89.78H441.89C442.87 89.78 443.43 90.34 443.43 91.32V94.33H451.48V86.49C451.48 83.2 450.36 82.01 447 82.01H412.35C408.99 82.01 407.87 83.2 407.87 86.49V94.33H415.92V91.32C415.92 90.34 416.48 89.78 417.46 89.78H425.09V131.71ZM471.951 124.85C471.951 124.85 478.041 132.55 489.031 132.55C499.461 132.55 505.551 125.83 505.551 117.92C505.551 101.61 482.171 103.29 482.171 94.82C482.171 91.67 485.251 89.5 489.451 89.5C492.741 89.5 496.031 91.04 496.031 93.35V95.59H504.291V90.97C504.291 83.9 495.331 81.17 489.521 81.17C479.931 81.17 472.931 87.12 472.931 95.17C472.931 110.64 496.311 109.94 496.311 118.41C496.311 122.26 492.951 124.29 489.171 124.29C482.241 124.29 477.131 118.41 477.131 118.41L471.951 124.85ZM510.711 113.86C510.711 124.22 518.271 132.55 530.031 132.55C539.761 132.55 545.081 126.11 545.081 126.11L541.371 119.95C541.371 119.95 536.891 124.78 530.801 124.78C525.061 124.78 519.671 121.07 519.671 113.79C519.671 107.35 524.081 102.66 530.241 102.66C532.411 102.66 535.351 103.5 535.351 105.46V107.42H543.191V103.22C543.191 97.06 534.861 95.17 530.241 95.17C517.991 95.17 510.711 103.78 510.711 113.86ZM551.462 131.71H560.352V115.33C560.352 113.65 560.492 112.11 560.912 110.71C562.242 106.37 565.882 103.29 570.572 103.29C575.052 103.29 576.242 106.23 576.242 110.57V126.95C576.242 130.31 577.642 131.71 580.932 131.71H589.402V124.22H586.602C585.622 124.22 585.062 123.66 585.062 122.68V108.75C585.062 99.3 580.582 95.17 572.602 95.17C566.442 95.17 562.032 98.81 560.352 102.24H560.212C560.212 102.24 560.352 100.98 560.352 99.23V86.7C560.352 83.48 558.882 82.01 555.592 82.01H547.122V89.57H549.922C550.902 89.57 551.462 90.06 551.462 91.11V131.71ZM592.947 113.86C592.947 124.85 601.627 132.55 612.477 132.55C623.397 132.55 632.077 124.85 632.077 113.86C632.077 102.94 623.397 95.17 612.477 95.17C601.627 95.17 592.947 102.94 592.947 113.86ZM601.907 113.86C601.907 107.28 606.737 102.73 612.477 102.73C618.287 102.73 623.117 107.28 623.117 113.86C623.117 120.51 618.287 124.99 612.477 124.99C606.737 124.99 601.907 120.51 601.907 113.86ZM636.56 113.86C636.56 124.85 645.24 132.55 656.09 132.55C667.01 132.55 675.69 124.85 675.69 113.86C675.69 102.94 667.01 95.17 656.09 95.17C645.24 95.17 636.56 102.94 636.56 113.86ZM645.52 113.86C645.52 107.28 650.35 102.73 656.09 102.73C661.9 102.73 666.73 107.28 666.73 113.86C666.73 120.51 661.9 124.99 656.09 124.99C650.35 124.99 645.52 120.51 645.52 113.86ZM682.987 126.95C682.987 130.31 684.387 131.71 687.747 131.71H696.147V124.22H693.417C692.437 124.22 691.877 123.66 691.877 122.68V86.77C691.877 83.48 690.407 82.01 687.117 82.01H678.647V89.57H681.447C682.427 89.57 682.987 90.06 682.987 91.11V126.95ZM718.523 113.86C718.523 124.85 727.203 132.55 738.053 132.55C748.973 132.55 757.653 124.85 757.653 113.86C757.653 102.94 748.973 95.17 738.053 95.17C727.203 95.17 718.523 102.94 718.523 113.86ZM727.483 113.86C727.483 107.28 732.313 102.73 738.053 102.73C743.863 102.73 748.693 107.28 748.693 113.86C748.693 120.51 743.863 124.99 738.053 124.99C732.313 124.99 727.483 120.51 727.483 113.86ZM765.706 131.71H774.596V103.08H782.226V96.01H774.596V95.17C774.596 89.99 778.936 89.36 781.456 89.36C782.506 89.36 783.276 89.5 783.276 89.5V81.94C783.276 81.94 782.086 81.73 780.266 81.73C775.296 81.73 765.706 83.27 765.706 94.96V96.01H761.296V103.08H765.706V131.71ZM809.483 126.95C809.483 130.31 810.883 131.71 814.243 131.71H825.163C840.493 131.71 850.503 122.47 850.503 106.79C850.503 91.11 840.493 82.01 825.163 82.01H804.933V89.78H809.483V126.95ZM818.653 122.4V89.78H824.673C834.473 89.78 840.983 95.73 840.983 106.79C840.983 117.99 834.613 123.94 824.673 123.94H820.193C819.213 123.94 818.653 123.38 818.653 122.4ZM855.174 113.86C855.174 124.01 862.524 132.55 874.354 132.55C883.244 132.55 888.704 127.16 888.704 127.16L884.994 121C884.994 121 880.724 124.99 874.984 124.99C869.594 124.99 864.974 121.7 864.274 115.4H888.914C888.914 115.4 889.124 113.16 889.124 112.11C889.124 102.66 883.524 95.17 873.304 95.17C862.594 95.17 855.174 102.87 855.174 113.86ZM864.554 109.24C865.534 104.76 868.754 102.03 873.304 102.03C876.944 102.03 879.884 104.97 880.024 109.24H864.554ZM893.648 126.18C893.648 126.18 898.688 132.55 908.488 132.55C916.258 132.55 922.208 128.35 922.208 121.63C922.208 109.73 903.238 110.85 903.238 105.25C903.238 103.15 905.408 102.03 908.558 102.03C910.518 102.03 913.038 102.87 913.038 104.55V106.3H920.878V102.59C920.878 96.78 913.178 95.17 908.348 95.17C900.928 95.17 894.488 98.46 894.488 105.6C894.488 117.15 913.318 117.08 913.318 122.12C913.318 124.5 911.218 125.62 908.488 125.62C902.398 125.62 897.848 120.37 897.848 120.37L893.648 126.18ZM931.153 90.2H938.853V82.01H931.153V90.2ZM930.733 126.95C930.733 130.31 932.133 131.71 935.423 131.71H943.893V124.22H941.093C940.113 124.22 939.553 123.66 939.553 122.68V100.77C939.553 97.48 938.153 96.01 934.863 96.01H926.393V103.57H929.193C930.173 103.57 930.733 104.06 930.733 105.11V126.95ZM947.8 112.95C947.8 122.75 953.61 131.01 963.83 131.01C968.59 131.01 971.67 129.4 973.77 126.39H973.91C973.91 126.39 973.84 127.44 973.84 128.28V129.96C973.84 136.4 969.15 138.71 963.76 138.71C958.3 138.71 953.89 136.33 953.89 136.33L951.16 143.33C954.59 145.15 959.35 146.41 963.83 146.41C973.14 146.41 982.66 141.79 982.66 129.54V104.97C982.66 104.06 983.29 103.57 984.2 103.57H986.93V96.01H978.67C975.87 96.01 974.75 97.69 974.75 99.3C974.75 99.79 974.75 100.21 974.75 100.21H974.61C974.61 100.21 971.88 95.17 963.62 95.17C953.33 95.17 947.8 103.15 947.8 112.95ZM965.72 123.52C959.98 123.52 956.83 118.9 956.83 112.67C956.83 106.65 959.77 102.73 965.16 102.73C969.99 102.73 974.05 104.9 974.05 113.02C974.05 121.07 969.99 123.52 965.72 123.52ZM994.232 131.71H1003.05V115.33C1003.05 113.65 1003.26 112.04 1003.75 110.57C1005.01 106.3 1008.58 103.29 1013.34 103.29C1017.82 103.29 1018.94 106.23 1018.94 110.57V126.95C1018.94 130.31 1020.34 131.71 1023.7 131.71H1032.17V124.22H1029.37C1028.39 124.22 1027.83 123.66 1027.83 122.68V108.75C1027.83 99.3 1023.28 95.17 1015.37 95.17C1008.16 95.17 1004.31 99.58 1002.77 102.59H1002.63C1002.63 102.59 1002.77 101.82 1002.77 101.05V100C1002.77 97.48 1001.23 96.01 998.082 96.01H989.892V103.57H992.692C993.672 103.57 994.232 104.06 994.232 105.11V131.71Z"/>
<path d="M313.569 245.23C313.569 250.51 315.769 252.71 321.049 252.71H338.209C362.299 252.71 378.029 238.19 378.029 213.55C378.029 188.91 362.299 174.61 338.209 174.61H306.419V186.82H313.569V245.23ZM327.979 238.08V186.82H337.439C352.839 186.82 363.069 196.17 363.069 213.55C363.069 231.15 353.059 240.5 337.439 240.5H330.399C328.859 240.5 327.979 239.62 327.979 238.08ZM385.369 224.66C385.369 240.61 396.919 254.03 415.509 254.03C429.479 254.03 438.059 245.56 438.059 245.56L432.229 235.88C432.229 235.88 425.519 242.15 416.499 242.15C408.029 242.15 400.769 236.98 399.669 227.08H438.389C438.389 227.08 438.719 223.56 438.719 221.91C438.719 207.06 429.919 195.29 413.859 195.29C397.029 195.29 385.369 207.39 385.369 224.66ZM400.109 217.4C401.649 210.36 406.709 206.07 413.859 206.07C419.579 206.07 424.199 210.69 424.419 217.4H400.109ZM446.709 236.54C446.709 247.76 455.839 254.03 465.849 254.03C478.499 254.03 482.789 244.13 482.789 244.13H483.009C483.009 244.13 482.899 245.12 482.899 246.55C482.899 249.85 484.879 252.71 490.049 252.71H502.589V240.94H498.189C496.649 240.94 495.769 240.06 495.769 238.52V217.62C495.769 205.08 490.269 195.29 471.569 195.29C465.739 195.29 450.999 196.39 450.999 206.84V212.78H463.979V209.81C463.979 206.73 468.929 206.07 471.459 206.07C478.609 206.07 481.799 209.04 481.799 217.07V217.51H480.039C470.909 217.51 446.709 218.94 446.709 236.54ZM460.789 235.88C460.789 228.07 472.339 227.08 479.599 227.08H482.019V228.4C482.019 235.22 476.739 243.14 469.259 243.14C463.539 243.14 460.789 239.62 460.789 235.88ZM513.762 252.71H527.622V226.97C527.622 224.33 527.952 221.8 528.722 219.49C530.702 212.78 536.312 208.05 543.792 208.05C550.832 208.05 552.592 212.67 552.592 219.49V245.23C552.592 250.51 554.792 252.71 560.072 252.71H573.382V240.94H568.982C567.442 240.94 566.562 240.06 566.562 238.52V216.63C566.562 201.78 559.412 195.29 546.982 195.29C535.652 195.29 529.602 202.22 527.182 206.95H526.962C526.962 206.95 527.182 205.74 527.182 204.53V202.88C527.182 198.92 524.762 196.61 519.812 196.61H506.942V208.49H511.342C512.882 208.49 513.762 209.26 513.762 210.91V252.71ZM575.853 197.27H585.313L593.563 173.18H581.023L575.853 197.27ZM596.005 244.02C596.005 244.02 603.925 254.03 619.325 254.03C631.535 254.03 640.885 247.43 640.885 236.87C640.885 218.17 611.075 219.93 611.075 211.13C611.075 207.83 614.485 206.07 619.435 206.07C622.515 206.07 626.475 207.39 626.475 210.03V212.78H638.795V206.95C638.795 197.82 626.695 195.29 619.105 195.29C607.445 195.29 597.325 200.46 597.325 211.68C597.325 229.83 626.915 229.72 626.915 237.64C626.915 241.38 623.615 243.14 619.325 243.14C609.755 243.14 602.605 234.89 602.605 234.89L596.005 244.02ZM675.031 252.71H683.721C689.221 252.71 691.091 251.28 692.851 246.33L697.691 232.69H724.091L728.931 246.33C730.691 251.28 732.671 252.71 738.171 252.71H746.751V240.5H744.991C743.121 240.5 742.241 240.06 741.581 238.08L718.481 174.61H703.411L680.201 238.08C679.541 240.06 678.661 240.5 676.791 240.5H675.031V252.71ZM700.991 220.81L707.701 201.23C709.131 196.94 710.781 189.57 710.781 189.57H711.001C711.001 189.57 712.651 196.94 714.081 201.23L720.791 220.81H700.991ZM765.041 252.71H780.881L790.341 220.7C791.221 217.73 791.771 214.65 791.771 214.65H791.991C791.991 214.65 792.431 217.73 793.311 220.7L802.881 252.71H818.611L832.031 210.47C832.691 208.82 833.461 208.49 835.111 208.49H836.651V196.61H827.081C822.461 196.61 820.261 198.04 819.161 202.33L811.021 233.46C810.251 236.43 809.921 239.4 809.921 239.4H809.701C809.701 239.4 809.371 236.43 808.491 233.46L798.041 196.83H785.721L775.381 233.46C774.501 236.43 774.061 239.4 774.061 239.4H773.841C773.841 239.4 773.511 236.43 772.741 233.46L764.491 202.33C763.391 198.04 761.191 196.61 756.571 196.61H747.001V208.49H748.541C750.191 208.49 751.071 208.82 751.621 210.47L765.041 252.71ZM840.84 236.54C840.84 247.76 849.97 254.03 859.98 254.03C872.63 254.03 876.92 244.13 876.92 244.13H877.14C877.14 244.13 877.03 245.12 877.03 246.55C877.03 249.85 879.01 252.71 884.18 252.71H896.72V240.94H892.32C890.78 240.94 889.9 240.06 889.9 238.52V217.62C889.9 205.08 884.4 195.29 865.7 195.29C859.87 195.29 845.13 196.39 845.13 206.84V212.78H858.11V209.81C858.11 206.73 863.06 206.07 865.59 206.07C872.74 206.07 875.93 209.04 875.93 217.07V217.51H874.17C865.04 217.51 840.84 218.94 840.84 236.54ZM854.92 235.88C854.92 228.07 866.47 227.08 873.73 227.08H876.15V228.4C876.15 235.22 870.87 243.14 863.39 243.14C857.67 243.14 854.92 239.62 854.92 235.88ZM907.893 252.71H921.753V230.49C921.753 227.19 922.193 224.11 922.963 221.36C925.493 213 932.313 209.59 938.253 209.59C940.233 209.59 941.663 209.81 941.663 209.81V196.06C941.663 196.06 940.343 195.84 939.133 195.84C930.553 195.84 923.843 202.22 921.313 210.25H921.093C921.093 210.25 921.313 208.82 921.313 206.73V203.43C921.313 198.7 918.783 196.61 913.833 196.61H901.073V208.49H905.473C907.013 208.49 907.893 209.26 907.893 210.91V252.71ZM945.574 224.66C945.574 242.04 955.364 254.03 970.544 254.03C983.414 254.03 988.034 244.9 988.034 244.9H988.254C988.254 244.9 988.254 245.78 988.254 246.99C988.254 250.29 990.124 252.71 995.184 252.71H1008.05V240.94H1003.76C1002.22 240.94 1001.34 240.06 1001.34 238.52V182.09C1001.34 176.92 999.034 174.61 993.864 174.61H980.554V186.49H984.954C986.494 186.49 987.374 187.26 987.374 188.91V198.81C987.374 200.68 987.484 202.11 987.484 202.11H987.264C987.264 202.11 983.304 195.29 971.094 195.29C956.244 195.29 945.574 206.84 945.574 224.66ZM973.624 242.26C965.374 242.26 959.764 235.33 959.764 224.66C959.764 213.55 966.144 207.28 973.844 207.28C983.194 207.28 987.704 215.86 987.704 224.55C987.704 236.98 980.884 242.26 973.624 242.26ZM211.56 373.93C211.56 373.93 221.13 386.03 238.4 386.03C254.79 386.03 264.36 375.47 264.36 363.04C264.36 337.41 227.62 340.05 227.62 326.74C227.62 321.79 232.46 318.38 239.06 318.38C244.23 318.38 249.4 320.8 249.4 324.43V327.95H262.38V320.69C262.38 309.58 248.3 305.29 239.17 305.29C224.1 305.29 213.1 314.64 213.1 327.29C213.1 351.6 249.84 350.5 249.84 363.81C249.84 369.86 244.56 373.05 238.62 373.05C227.73 373.05 219.7 363.81 219.7 363.81L211.56 373.93ZM278.078 406.71H291.938V383.5C291.938 380.64 291.718 378.66 291.718 378.66H291.938C291.938 378.66 296.888 386.03 307.998 386.03C322.738 386.03 333.738 374.48 333.738 356.66C333.738 339.28 323.948 327.29 308.768 327.29C295.678 327.29 290.948 336.2 290.948 336.2H290.728C290.728 336.2 290.728 335.32 290.728 334C290.728 330.92 288.858 328.61 283.688 328.61H271.258V340.49H275.658C277.198 340.49 278.078 341.26 278.078 342.91V406.71ZM291.608 356.99C291.608 344.56 298.428 339.28 305.688 339.28C313.938 339.28 319.658 346.21 319.658 356.88C319.658 367.99 313.168 374.26 305.468 374.26C296.228 374.26 291.608 365.68 291.608 356.99ZM340.788 356.66C340.788 372.61 352.338 386.03 370.928 386.03C384.898 386.03 393.478 377.56 393.478 377.56L387.648 367.88C387.648 367.88 380.938 374.15 371.918 374.15C363.448 374.15 356.188 368.98 355.088 359.08H393.808C393.808 359.08 394.138 355.56 394.138 353.91C394.138 339.06 385.338 327.29 369.278 327.29C352.448 327.29 340.788 339.39 340.788 356.66ZM355.528 349.4C357.068 342.36 362.128 338.07 369.278 338.07C374.998 338.07 379.618 342.69 379.838 349.4H355.528ZM402.019 356.66C402.019 372.94 413.899 386.03 432.379 386.03C447.669 386.03 456.029 375.91 456.029 375.91L450.199 366.23C450.199 366.23 443.159 373.82 433.589 373.82C424.569 373.82 416.099 367.99 416.099 356.55C416.099 346.43 423.029 339.06 432.709 339.06C436.119 339.06 440.739 340.38 440.739 343.46V346.54H453.059V339.94C453.059 330.26 439.969 327.29 432.709 327.29C413.459 327.29 402.019 340.82 402.019 356.66ZM467.918 319.48H480.018V306.61H467.918V319.48ZM467.258 377.23C467.258 382.51 469.458 384.71 474.628 384.71H487.938V372.94H483.538C481.998 372.94 481.118 372.06 481.118 370.52V336.09C481.118 330.92 478.918 328.61 473.748 328.61H460.438V340.49H464.838C466.378 340.49 467.258 341.26 467.258 342.91V377.23ZM494.19 368.54C494.19 379.76 503.32 386.03 513.33 386.03C525.98 386.03 530.27 376.13 530.27 376.13H530.49C530.49 376.13 530.38 377.12 530.38 378.55C530.38 381.85 532.36 384.71 537.53 384.71H550.07V372.94H545.67C544.13 372.94 543.25 372.06 543.25 370.52V349.62C543.25 337.08 537.75 327.29 519.05 327.29C513.22 327.29 498.48 328.39 498.48 338.84V344.78H511.46V341.81C511.46 338.73 516.41 338.07 518.94 338.07C526.09 338.07 529.28 341.04 529.28 349.07V349.51H527.52C518.39 349.51 494.19 350.94 494.19 368.54ZM508.27 367.88C508.27 360.07 519.82 359.08 527.08 359.08H529.5V360.4C529.5 367.22 524.22 375.14 516.74 375.14C511.02 375.14 508.27 371.62 508.27 367.88ZM560.912 377.23C560.912 382.51 563.112 384.71 568.392 384.71H581.592V372.94H577.302C575.762 372.94 574.882 372.06 574.882 370.52V314.09C574.882 308.92 572.572 306.61 567.402 306.61H554.092V318.49H558.492C560.032 318.49 560.912 319.26 560.912 320.91V377.23ZM615.215 384.71H627.645C632.815 384.71 634.685 382.51 635.125 377.23L637.655 342.47C638.095 337.3 637.765 330.26 637.765 330.26H637.985C637.985 330.26 640.295 338.07 642.275 342.47L655.255 371.29H666.915L679.895 342.47C681.875 338.07 684.185 330.37 684.185 330.37H684.405C684.405 330.37 684.075 337.3 684.515 342.47L687.155 377.23C687.595 382.51 689.355 384.71 694.525 384.71H706.955V372.5H703.545C702.005 372.5 701.235 371.62 701.125 370.08L696.065 306.61H681.105L665.045 343.79C663.175 348.3 661.195 354.24 661.195 354.24H660.975C660.975 354.24 658.995 348.3 657.125 343.79L641.065 306.61H626.105L621.045 370.08C620.935 371.62 620.165 372.5 618.625 372.5H615.215V384.71ZM712.468 356.66C712.468 372.61 724.018 386.03 742.608 386.03C756.578 386.03 765.158 377.56 765.158 377.56L759.328 367.88C759.328 367.88 752.618 374.15 743.598 374.15C735.128 374.15 727.868 368.98 726.768 359.08H765.488C765.488 359.08 765.818 355.56 765.818 353.91C765.818 339.06 757.018 327.29 740.958 327.29C724.128 327.29 712.468 339.39 712.468 356.66ZM727.208 349.4C728.748 342.36 733.808 338.07 740.958 338.07C746.678 338.07 751.298 342.69 751.518 349.4H727.208ZM779.309 384.71H793.169V358.97C793.169 356.33 793.499 353.8 794.269 351.49C796.249 344.78 801.859 340.05 809.339 340.05C816.379 340.05 818.139 344.67 818.139 351.49V377.23C818.139 382.51 820.339 384.71 825.619 384.71H838.929V372.94H834.529C832.989 372.94 832.109 372.06 832.109 370.52V348.63C832.109 333.78 824.959 327.29 812.529 327.29C801.199 327.29 795.149 334.22 792.729 338.95H792.509C792.509 338.95 792.729 337.74 792.729 336.53V334.88C792.729 330.92 790.309 328.61 785.359 328.61H772.489V340.49H776.889C778.429 340.49 779.309 341.26 779.309 342.91V384.71ZM850.212 364.14C850.212 382.95 865.722 385.26 873.532 385.26C876.062 385.26 877.822 384.93 877.822 384.93V372.72C877.822 372.72 876.832 372.94 875.292 372.94C871.442 372.94 864.182 371.62 864.182 362.38V339.72H876.942V328.61H864.182V313.32H850.542V328.61H842.952V339.72H850.212V364.14ZM891.805 319.48H903.905V306.61H891.805V319.48ZM891.145 377.23C891.145 382.51 893.345 384.71 898.515 384.71H911.825V372.94H907.425C905.885 372.94 905.005 372.06 905.005 370.52V336.09C905.005 330.92 902.805 328.61 897.635 328.61H884.325V340.49H888.725C890.265 340.49 891.145 341.26 891.145 342.91V377.23ZM917.966 356.66C917.966 373.93 931.606 386.03 948.656 386.03C965.816 386.03 979.456 373.93 979.456 356.66C979.456 339.5 965.816 327.29 948.656 327.29C931.606 327.29 917.966 339.5 917.966 356.66ZM932.046 356.66C932.046 346.32 939.636 339.17 948.656 339.17C957.786 339.17 965.376 346.32 965.376 356.66C965.376 367.11 957.786 374.15 948.656 374.15C939.636 374.15 932.046 367.11 932.046 356.66ZM992.111 384.71H1005.97V358.97C1005.97 356.33 1006.3 353.8 1007.07 351.49C1009.05 344.78 1014.66 340.05 1022.14 340.05C1029.18 340.05 1030.94 344.67 1030.94 351.49V377.23C1030.94 382.51 1033.14 384.71 1038.42 384.71H1051.73V372.94H1047.33C1045.79 372.94 1044.91 372.06 1044.91 370.52V348.63C1044.91 333.78 1037.76 327.29 1025.33 327.29C1014 327.29 1007.95 334.22 1005.53 338.95H1005.31C1005.31 338.95 1005.53 337.74 1005.53 336.53V334.88C1005.53 330.92 1003.11 328.61 998.161 328.61H985.291V340.49H989.691C991.231 340.49 992.111 341.26 992.111 342.91V384.71ZM1056.41 376.02C1056.41 376.02 1064.33 386.03 1079.73 386.03C1091.94 386.03 1101.29 379.43 1101.29 368.87C1101.29 350.17 1071.48 351.93 1071.48 343.13C1071.48 339.83 1074.89 338.07 1079.84 338.07C1082.92 338.07 1086.88 339.39 1086.88 342.03V344.78H1099.2V338.95C1099.2 329.82 1087.1 327.29 1079.51 327.29C1067.85 327.29 1057.73 332.46 1057.73 343.68C1057.73 361.83 1087.32 361.72 1087.32 369.64C1087.32 373.38 1084.02 375.14 1079.73 375.14C1070.16 375.14 1063.01 366.89 1063.01 366.89L1056.41 376.02Z"/>
<path d="M1251.42 334.92C1257.72 329.18 1273.16 315.15 1283.19 306.33C1305.88 286.41 1313.21 241.6 1313.21 241.6C1313.21 241.6 1282.48 254.81 1266.18 273.87C1266.56 270.77 1266.9 267.68 1267.17 264.59C1271.51 257.54 1282.73 239.35 1290.08 227.89C1306.43 202.39 1301.07 157.52 1301.07 157.52C1301.07 157.52 1275.68 178.45 1265.02 201.01C1264.52 197.84 1263.96 194.68 1263.34 191.55C1265.67 183.23 1270.8 165 1274.33 153.22C1282.6 125.6 1265.83 86.3 1265.83 86.3C1265.83 86.3 1248.75 111.19 1244.46 134.2C1243.11 131.36 1241.72 128.55 1240.27 125.78C1240.21 117.25 1240.13 101.15 1240.24 90.48C1240.53 63.82 1215.4 33.47 1215.4 33.47C1215.4 33.47 1207.04 58.52 1208.46 79.68C1206.29 77.25 1204.06 74.88 1201.79 72.56C1199.82 65.97 1195.42 51.16 1192.73 41.52C1186.49 19.12 1157.82 0 1157.82 0C1157.82 0 1156.35 34.51 1168.62 50.88C1170.72 53.68 1173.18 56.29 1175.78 58.67C1172.84 57.74 1169.91 57.22 1167.16 57.36C1158.8 57.8 1145.25 57.54 1145.25 57.54C1145.25 57.54 1156.05 72.28 1168.33 77.08C1178.98 81.24 1194.93 76.97 1200.13 75.37C1203.24 78.68 1206.25 82.03 1209.13 85.43C1209.57 88.05 1210.19 90.57 1211.06 92.91C1212.46 96.68 1214.3 100.34 1216.38 103.81C1213.47 101.82 1210.45 100.3 1207.42 99.56C1198.2 97.32 1183.54 92.61 1183.54 92.61C1183.54 92.61 1190.62 112.33 1202.45 121.6C1213.36 130.14 1233.76 130.19 1238.57 130.07C1238.9 130.36 1239.19 130.62 1239.43 130.83C1240.91 133.76 1242.34 136.72 1243.68 139.71C1243.46 142.11 1243.41 144.46 1243.57 146.74C1243.88 151.09 1244.69 155.46 1245.79 159.71C1243.39 156.75 1240.74 154.24 1237.85 152.54C1229.03 147.37 1215.37 137.96 1215.37 137.96C1215.37 137.96 1216.76 160.64 1226.15 173.92C1234.27 185.4 1253.21 191.68 1259.64 193.54C1260.5 198.84 1261.19 204.22 1261.7 209.69C1261.48 210.49 1261.28 211.29 1261.11 212.08C1260.16 216.58 1259.69 221.25 1259.55 225.89C1258.01 222.17 1256.09 218.83 1253.68 216.23C1246.35 208.34 1235.39 194.7 1235.39 194.7C1235.39 194.7 1230.16 218.1 1235.72 234.39C1240.01 246.97 1254.18 257.94 1261.36 262.86C1260.63 270.44 1259.63 278.17 1258.33 286.05C1256.89 289.16 1255.66 292.4 1254.61 295.68C1254.17 291.65 1253.26 287.88 1251.68 284.68C1246.87 274.97 1240.2 258.68 1240.2 258.68C1240.2 258.68 1228.72 279.76 1229.5 297.05C1230.11 310.6 1240.88 325.47 1246.3 332.13C1243.77 338.92 1240.93 345.6 1237.8 352.15C1235.15 355.07 1232.73 358.26 1230.52 361.57C1231.22 357.56 1231.4 353.66 1230.78 350.13C1228.89 339.39 1227.04 321.76 1227.04 321.76C1227.04 321.76 1210.23 338.81 1206.17 355.71C1203.01 368.87 1209.06 386.14 1212.4 394.19C1208.01 400.12 1203.38 405.87 1198.51 411.4C1195.27 413.42 1192.17 415.74 1189.23 418.23C1191.01 414.56 1192.27 410.85 1192.65 407.27C1193.82 396.37 1196.95 378.84 1196.95 378.84C1196.95 378.84 1176.17 390.47 1167.61 405.62C1160.81 417.65 1161.97 436.56 1162.93 445.04C1145.25 458.93 1125.92 470.47 1105.58 479.04C1111.52 479.09 1117.47 479.21 1123.41 479.42C1140.09 471.21 1155.92 460.98 1170.58 449C1180.37 447.33 1196.38 444.63 1207.3 442.96C1236.77 438.46 1266.74 404.36 1266.74 404.36C1266.74 404.36 1236.19 399.09 1212.73 405.34C1214.68 402.78 1216.59 400.18 1218.45 397.55C1226.93 393.39 1243.69 385.21 1254.8 380C1281.98 367.27 1301.42 326.16 1301.42 326.16C1301.42 326.16 1268.88 330.07 1248.01 343.55C1249.17 340.69 1250.3 337.82 1251.37 334.91L1251.42 334.92Z"/>
</svg>
