<svg width="1208" height="480" viewBox="0 0 1208 480" fill="none" xmlns="http://www.w3.org/2000/svg">
<path d="M145.55 405.62C136.99 390.47 116.21 378.84 116.21 378.84C116.21 378.84 119.34 396.37 120.51 407.27C120.9 410.85 122.15 414.57 123.93 418.23C120.99 415.74 117.89 413.42 114.65 411.4C109.78 405.86 105.16 400.11 100.76 394.19C104.1 386.14 110.15 368.86 106.99 355.71C102.94 338.81 86.12 321.76 86.12 321.76C86.12 321.76 84.27 339.38 82.38 350.13C81.76 353.66 81.94 357.56 82.64 361.57C80.43 358.26 78.01 355.07 75.36 352.15C72.23 345.61 69.39 338.93 66.86 332.13C72.28 325.46 83.05 310.6 83.66 297.05C84.44 279.76 72.96 258.68 72.96 258.68C72.96 258.68 66.29 274.97 61.48 284.68C59.9 287.87 58.99 291.65 58.55 295.68C57.5 292.4 56.27 289.16 54.83 286.05C53.54 278.17 52.54 270.44 51.8 262.86C58.98 257.94 73.15 246.97 77.44 234.39C82.99 218.11 77.77 194.7 77.77 194.7C77.77 194.7 66.81 208.34 59.48 216.23C57.07 218.82 55.14 222.17 53.61 225.89C53.47 221.25 53 216.58 52.05 212.08C51.88 211.28 51.68 210.49 51.46 209.69C51.97 204.22 52.66 198.84 53.52 193.54C59.96 191.68 78.89 185.39 87.01 173.92C96.41 160.64 97.79 137.96 97.79 137.96C97.79 137.96 84.13 147.37 75.31 152.54C72.41 154.24 69.76 156.75 67.37 159.71C68.47 155.46 69.27 151.09 69.59 146.74C69.75 144.47 69.7 142.11 69.49 139.71C70.83 136.72 72.26 133.76 73.74 130.83C73.98 130.62 74.27 130.36 74.6 130.07C79.41 130.19 99.81 130.14 110.72 121.6C122.55 112.33 129.64 92.61 129.64 92.61C129.64 92.61 114.99 97.31 105.76 99.56C102.73 100.3 99.71 101.82 96.8 103.81C98.88 100.34 100.72 96.68 102.12 92.91C102.99 90.57 103.61 88.05 104.05 85.43C106.93 82.03 109.94 78.68 113.05 75.37C118.25 76.97 134.19 81.24 144.85 77.08C157.13 72.29 167.93 57.54 167.93 57.54C167.93 57.54 154.38 57.8 146.02 57.36C143.27 57.22 140.35 57.73 137.4 58.67C140.01 56.28 142.46 53.68 144.56 50.88C156.83 34.51 155.36 0 155.36 0C155.36 0 126.69 19.12 120.44 41.52C117.75 51.15 113.35 65.97 111.38 72.56C109.11 74.89 106.88 77.25 104.71 79.68C106.13 58.53 97.77 33.47 97.77 33.47C97.77 33.47 72.64 63.82 72.93 90.48C73.05 101.16 72.96 117.25 72.9 125.78C71.45 128.55 70.06 131.36 68.71 134.2C64.42 111.19 47.34 86.3 47.34 86.3C47.34 86.3 30.57 125.6 38.84 153.22C42.37 164.99 47.5 183.23 49.83 191.55C49.21 194.68 48.66 197.84 48.15 201.01C37.49 178.45 12.1 157.52 12.1 157.52C12.1 157.52 6.74 202.38 23.09 227.89C30.44 239.35 41.66 257.54 46 264.59C46.27 267.67 46.61 270.77 46.99 273.87C30.73 254.81 0 241.59 0 241.59C0 241.59 7.34 286.39 30.02 306.32C40.05 315.13 55.49 329.17 61.79 334.91C62.86 337.82 63.99 340.7 65.15 343.55C44.28 330.06 11.74 326.16 11.74 326.16C11.74 326.16 31.18 367.28 58.36 380C69.47 385.2 86.23 393.39 94.71 397.55C96.58 400.19 98.48 402.79 100.43 405.34C76.97 399.09 46.42 404.36 46.42 404.36C46.42 404.36 76.39 438.46 105.86 442.96C116.77 444.63 132.79 447.33 142.58 449C157.23 460.98 173.06 471.21 189.75 479.42C195.69 479.21 201.64 479.09 207.58 479.04C187.23 470.47 167.91 458.93 150.22 445.04C151.19 436.55 152.34 417.64 145.55 405.62Z" fill="#1D1D1B"/>
<path d="M216.636 197.71H225.806V179.16H230.426C233.016 179.16 234.066 179.51 235.116 181.47L241.486 194C243.096 197.15 244.706 197.71 248.416 197.71H253.246V189.94H252.336C250.796 189.94 249.606 189.8 248.836 188.33L244.006 178.74C243.096 176.92 241.556 176.22 241.556 176.22V176.08C243.656 175.66 249.816 171.95 249.816 162.99C249.816 153.61 243.446 148.01 234.346 148.01H212.086V155.78H216.636V197.71ZM225.806 171.32V155.78H233.226C237.706 155.78 240.436 158.58 240.436 163.48C240.436 168.45 237.706 171.32 233.086 171.32H225.806ZM255.195 197.71H263.105C266.395 197.71 267.585 196.31 267.865 192.95L269.475 170.83C269.755 167.54 269.545 163.06 269.545 163.06H269.685C269.685 163.06 271.155 168.03 272.415 170.83L280.675 189.17H288.095L296.355 170.83C297.615 168.03 299.085 163.13 299.085 163.13H299.225C299.225 163.13 299.015 167.54 299.295 170.83L300.975 192.95C301.255 196.31 302.375 197.71 305.665 197.71H313.575V189.94H311.405C310.425 189.94 309.935 189.38 309.865 188.4L306.645 148.01H297.125L286.905 171.67C285.715 174.54 284.455 178.32 284.455 178.32H284.315C284.315 178.32 283.055 174.54 281.865 171.67L271.645 148.01H262.125L258.905 188.4C258.835 189.38 258.345 189.94 257.365 189.94H255.195V197.71ZM317.503 197.71H336.123V189.94H331.153V155.78H336.123V148.01H317.503V155.78H322.473V189.94H317.503V197.71ZM357.038 197.71H366.208V155.78H373.838C374.818 155.78 375.378 156.34 375.378 157.32V160.33H383.428V152.49C383.428 149.2 382.308 148.01 378.948 148.01H344.298C340.938 148.01 339.818 149.2 339.818 152.49V160.33H347.868V157.32C347.868 156.34 348.428 155.78 349.408 155.78H357.038V197.71ZM402.429 197.71H407.959C411.459 197.71 412.649 196.8 413.769 193.65L416.849 184.97H433.649L436.729 193.65C437.849 196.8 439.109 197.71 442.609 197.71H448.069V189.94H446.949C445.759 189.94 445.199 189.66 444.779 188.4L430.079 148.01H420.489L405.719 188.4C405.299 189.66 404.739 189.94 403.549 189.94H402.429V197.71ZM418.949 177.41L423.219 164.95C424.129 162.22 425.179 157.53 425.179 157.53H425.319C425.319 157.53 426.369 162.22 427.279 164.95L431.549 177.41H418.949ZM451.067 179.86C451.067 190.92 457.297 198.55 466.957 198.55C475.147 198.55 478.087 192.74 478.087 192.74H478.227C478.227 192.74 478.227 193.3 478.227 194.07C478.227 196.17 479.417 197.71 482.637 197.71H490.827V190.22H488.097C487.117 190.22 486.557 189.66 486.557 188.68V152.77C486.557 149.48 485.087 148.01 481.797 148.01H473.327V155.57H476.127C477.107 155.57 477.667 156.06 477.667 157.11V163.41C477.667 164.6 477.737 165.51 477.737 165.51H477.597C477.597 165.51 475.077 161.17 467.307 161.17C457.857 161.17 451.067 168.52 451.067 179.86ZM468.917 191.06C463.667 191.06 460.097 186.65 460.097 179.86C460.097 172.79 464.157 168.8 469.057 168.8C475.007 168.8 477.877 174.26 477.877 179.79C477.877 187.7 473.537 191.06 468.917 191.06ZM494.612 179.86C494.612 190.85 503.292 198.55 514.142 198.55C525.062 198.55 533.742 190.85 533.742 179.86C533.742 168.94 525.062 161.17 514.142 161.17C503.292 161.17 494.612 168.94 494.612 179.86ZM503.572 179.86C503.572 173.28 508.402 168.73 514.142 168.73C519.952 168.73 524.782 173.28 524.782 179.86C524.782 186.51 519.952 190.99 514.142 190.99C508.402 190.99 503.572 186.51 503.572 179.86ZM540.968 197.71H549.368V195.89C549.368 194.49 549.228 193.51 549.228 193.51H549.368C549.368 193.51 552.588 198.55 560.008 198.55C569.458 198.55 576.388 191.2 576.388 179.86C576.388 168.8 570.228 161.17 560.568 161.17C553.008 161.17 549.858 166.14 549.858 166.14H549.718C549.718 166.14 549.858 164.88 549.858 163.13V152.77C549.858 149.48 548.388 148.01 545.098 148.01H536.628V155.57H539.428C540.408 155.57 540.968 156.06 540.968 157.11V197.71ZM549.578 180.07C549.578 172.16 553.918 168.8 558.538 168.8C563.788 168.8 567.428 173.21 567.428 180C567.428 187.07 563.298 191.06 558.468 191.06C552.518 191.06 549.578 185.6 549.578 180.07ZM580.95 179.86C580.95 190.01 588.3 198.55 600.13 198.55C609.02 198.55 614.48 193.16 614.48 193.16L610.77 187C610.77 187 606.5 190.99 600.76 190.99C595.37 190.99 590.75 187.7 590.05 181.4H614.69C614.69 181.4 614.9 179.16 614.9 178.11C614.9 168.66 609.3 161.17 599.08 161.17C588.37 161.17 580.95 168.87 580.95 179.86ZM590.33 175.24C591.31 170.76 594.53 168.03 599.08 168.03C602.72 168.03 605.66 170.97 605.8 175.24H590.33ZM642.57 180C642.57 190.99 650.34 198.55 662.17 198.55C673.86 198.55 681.63 190.99 681.63 180V157.32C681.63 156.34 682.19 155.78 683.17 155.78H686.18V148.01H677.22C673.86 148.01 672.46 149.48 672.46 152.77V179.65C672.46 186.23 668.33 190.01 662.1 190.01C655.87 190.01 651.74 186.23 651.74 179.72V152.77C651.74 149.48 650.34 148.01 646.98 148.01H638.02V155.78H641.03C642.01 155.78 642.57 156.34 642.57 157.32V180ZM688.367 197.71H698.657L706.287 184.62C707.967 181.75 709.297 178.81 709.297 178.81H709.437C709.437 178.81 710.907 181.68 712.587 184.62L720.287 197.71H730.577L715.107 172.51L724.417 157.46C725.327 155.99 725.887 155.78 727.427 155.78H729.527V148.01H723.857C720.497 148.01 719.097 148.71 717.417 151.65L712.587 159.91C710.907 162.78 709.577 165.93 709.577 165.93H709.437C709.437 165.93 707.897 162.78 706.287 159.91L701.527 151.65C699.847 148.78 698.517 148.01 695.157 148.01H689.417V155.78H691.517C693.057 155.78 693.617 155.92 694.527 157.46L703.767 172.51L688.367 197.71ZM750.242 197.71H755.772C759.272 197.71 760.462 196.8 761.582 193.65L764.662 184.97H781.462L784.542 193.65C785.662 196.8 786.922 197.71 790.422 197.71H795.882V189.94H794.762C793.572 189.94 793.012 189.66 792.592 188.4L777.892 148.01H768.302L753.532 188.4C753.112 189.66 752.552 189.94 751.362 189.94H750.242V197.71ZM766.762 177.41L771.032 164.95C771.942 162.22 772.992 157.53 772.992 157.53H773.132C773.132 157.53 774.182 162.22 775.092 164.95L779.362 177.41H766.762ZM807.521 197.71H817.601L823.621 177.34C824.181 175.45 824.531 173.49 824.531 173.49H824.671C824.671 173.49 824.951 175.45 825.511 177.34L831.601 197.71H841.611L850.151 170.83C850.571 169.78 851.061 169.57 852.111 169.57H853.091V162.01H847.001C844.061 162.01 842.661 162.92 841.961 165.65L836.781 185.46C836.291 187.35 836.081 189.24 836.081 189.24H835.941C835.941 189.24 835.731 187.35 835.171 185.46L828.521 162.15H820.681L814.101 185.46C813.541 187.35 813.261 189.24 813.261 189.24H813.121C813.121 189.24 812.911 187.35 812.421 185.46L807.171 165.65C806.471 162.92 805.071 162.01 802.131 162.01H796.041V169.57H797.021C798.071 169.57 798.631 169.78 798.981 170.83L807.521 197.71ZM855.756 187.42C855.756 194.56 861.566 198.55 867.936 198.55C875.986 198.55 878.716 192.25 878.716 192.25H878.856C878.856 192.25 878.786 192.88 878.786 193.79C878.786 195.89 880.046 197.71 883.336 197.71H891.316V190.22H888.516C887.536 190.22 886.976 189.66 886.976 188.68V175.38C886.976 167.4 883.476 161.17 871.576 161.17C867.866 161.17 858.486 161.87 858.486 168.52V172.3H866.746V170.41C866.746 168.45 869.896 168.03 871.506 168.03C876.056 168.03 878.086 169.92 878.086 175.03V175.31H876.966C871.156 175.31 855.756 176.22 855.756 187.42ZM864.716 187C864.716 182.03 872.066 181.4 876.686 181.4H878.226V182.24C878.226 186.58 874.866 191.62 870.106 191.62C866.466 191.62 864.716 189.38 864.716 187ZM898.426 197.71H907.246V183.57C907.246 181.47 907.526 179.51 908.016 177.76C909.626 172.44 913.966 170.27 917.746 170.27C919.006 170.27 919.916 170.41 919.916 170.41V161.66C919.916 161.66 919.076 161.52 918.306 161.52C912.846 161.52 908.576 165.58 906.966 170.69H906.826C906.826 170.69 906.966 169.78 906.966 168.45V166.35C906.966 163.34 905.356 162.01 902.206 162.01H894.086V169.57H896.886C897.866 169.57 898.426 170.06 898.426 171.11V197.71ZM922.405 179.86C922.405 190.92 928.635 198.55 938.295 198.55C946.485 198.55 949.425 192.74 949.425 192.74H949.565C949.565 192.74 949.565 193.3 949.565 194.07C949.565 196.17 950.755 197.71 953.975 197.71H962.165V190.22H959.435C958.455 190.22 957.895 189.66 957.895 188.68V152.77C957.895 149.48 956.425 148.01 953.135 148.01H944.665V155.57H947.465C948.445 155.57 949.005 156.06 949.005 157.11V163.41C949.005 164.6 949.075 165.51 949.075 165.51H948.935C948.935 165.51 946.415 161.17 938.645 161.17C929.195 161.17 922.405 168.52 922.405 179.86ZM940.255 191.06C935.005 191.06 931.435 186.65 931.435 179.86C931.435 172.79 935.495 168.8 940.395 168.8C946.345 168.8 949.215 174.26 949.215 179.79C949.215 187.7 944.875 191.06 940.255 191.06ZM965.46 192.18C965.46 192.18 970.5 198.55 980.3 198.55C988.07 198.55 994.02 194.35 994.02 187.63C994.02 175.73 975.05 176.85 975.05 171.25C975.05 169.15 977.22 168.03 980.37 168.03C982.33 168.03 984.85 168.87 984.85 170.55V172.3H992.69V168.59C992.69 162.78 984.99 161.17 980.16 161.17C972.74 161.17 966.3 164.46 966.3 171.6C966.3 183.15 985.13 183.08 985.13 188.12C985.13 190.5 983.03 191.62 980.3 191.62C974.21 191.62 969.66 186.37 969.66 186.37L965.46 192.18Z" fill="black"/>
<path d="M210.977 279.11C210.977 302.1 228.357 320.03 251.347 320.03C274.337 320.03 291.717 302.1 291.717 279.11C291.717 256.78 274.337 239.29 251.347 239.29C228.357 239.29 210.977 256.78 210.977 279.11ZM225.937 279.11C225.937 264.15 237.267 252.71 251.347 252.71C265.427 252.71 276.757 264.15 276.757 279.11C276.757 294.73 265.427 306.61 251.347 306.61C237.267 306.61 225.937 294.73 225.937 279.11ZM317.003 318.71H333.613L349.673 276.47C350.223 275.04 351.213 274.49 352.753 274.49H354.073V262.61H346.593C342.083 262.61 339.773 264.04 338.343 267.89L327.783 297.37C326.683 300.67 325.803 305.4 325.803 305.4H325.583C325.583 305.4 324.703 300.67 323.493 297.37L312.933 267.89C311.503 264.04 309.303 262.61 304.683 262.61H296.653V274.49H297.863C299.403 274.49 300.393 275.04 300.943 276.47L317.003 318.71ZM357.72 290.66C357.72 306.61 369.27 320.03 387.86 320.03C401.83 320.03 410.41 311.56 410.41 311.56L404.58 301.88C404.58 301.88 397.87 308.15 388.85 308.15C380.38 308.15 373.12 302.98 372.02 293.08H410.74C410.74 293.08 411.07 289.56 411.07 287.91C411.07 273.06 402.27 261.29 386.21 261.29C369.38 261.29 357.72 273.39 357.72 290.66ZM372.46 283.4C374 276.36 379.06 272.07 386.21 272.07C391.93 272.07 396.55 276.69 396.77 283.4H372.46ZM424.561 318.71H438.421V296.49C438.421 293.19 438.861 290.11 439.631 287.36C442.161 279 448.981 275.59 454.921 275.59C456.901 275.59 458.331 275.81 458.331 275.81V262.06C458.331 262.06 457.011 261.84 455.801 261.84C447.221 261.84 440.511 268.22 437.981 276.25H437.761C437.761 276.25 437.981 274.82 437.981 272.73V269.43C437.981 264.7 435.451 262.61 430.501 262.61H417.741V274.49H422.141C423.681 274.49 424.561 275.26 424.561 276.91V318.71ZM461.063 302.54C461.063 313.76 470.193 320.03 480.203 320.03C492.853 320.03 497.143 310.13 497.143 310.13H497.363C497.363 310.13 497.253 311.12 497.253 312.55C497.253 315.85 499.233 318.71 504.403 318.71H516.943V306.94H512.543C511.003 306.94 510.123 306.06 510.123 304.52V283.62C510.123 271.08 504.623 261.29 485.923 261.29C480.093 261.29 465.353 262.39 465.353 272.84V278.78H478.333V275.81C478.333 272.73 483.283 272.07 485.813 272.07C492.963 272.07 496.153 275.04 496.153 283.07V283.51H494.393C485.263 283.51 461.063 284.94 461.063 302.54ZM475.143 301.88C475.143 294.07 486.693 293.08 493.953 293.08H496.373V294.4C496.373 301.22 491.093 309.14 483.613 309.14C477.893 309.14 475.143 305.62 475.143 301.88ZM527.785 311.23C527.785 316.51 529.985 318.71 535.265 318.71H548.465V306.94H544.175C542.635 306.94 541.755 306.06 541.755 304.52V248.09C541.755 242.92 539.445 240.61 534.275 240.61H520.965V252.49H525.365C526.905 252.49 527.785 253.26 527.785 254.91V311.23ZM559.797 311.23C559.797 316.51 561.997 318.71 567.277 318.71H580.477V306.94H576.187C574.647 306.94 573.767 306.06 573.767 304.52V248.09C573.767 242.92 571.457 240.61 566.287 240.61H552.977V252.49H557.377C558.917 252.49 559.797 253.26 559.797 254.91V311.23ZM633.082 318.71H649.802L662.232 274.49C663.662 269.43 664.322 264.81 664.322 264.81H664.542C664.542 264.81 665.202 269.54 666.522 274.49L678.402 318.71H695.012L711.292 255.24C711.732 253.37 712.832 252.82 714.812 252.82H716.902V240.61H707.442C701.942 240.61 698.972 241.93 697.872 246.99L687.092 293.52C686.102 297.92 685.772 301.77 685.772 301.77H685.552C685.552 301.77 685.222 298.03 684.012 293.52L670.592 240.83H658.382L644.192 293.52C642.982 298.03 642.542 301.77 642.542 301.77H642.322C642.322 301.77 641.992 297.92 641.002 293.52L630.332 246.99C629.122 241.93 626.152 240.61 620.652 240.61H611.302V252.82H613.392C615.262 252.82 616.472 253.37 616.912 255.24L633.082 318.71ZM728.913 253.48H741.013V240.61H728.913V253.48ZM728.253 311.23C728.253 316.51 730.453 318.71 735.623 318.71H748.933V306.94H744.533C742.993 306.94 742.113 306.06 742.113 304.52V270.09C742.113 264.92 739.913 262.61 734.743 262.61H721.433V274.49H725.833C727.373 274.49 728.253 275.26 728.253 276.91V311.23ZM760.684 318.71H774.544V292.97C774.544 290.33 774.874 287.8 775.644 285.49C777.624 278.78 783.234 274.05 790.714 274.05C797.754 274.05 799.514 278.67 799.514 285.49V311.23C799.514 316.51 801.714 318.71 806.994 318.71H820.304V306.94H815.904C814.364 306.94 813.484 306.06 813.484 304.52V282.63C813.484 267.78 806.334 261.29 793.904 261.29C782.574 261.29 776.524 268.22 774.104 272.95H773.884C773.884 272.95 774.104 271.74 774.104 270.53V268.88C774.104 264.92 771.684 262.61 766.734 262.61H753.864V274.49H758.264C759.804 274.49 760.684 275.26 760.684 276.91V318.71ZM831.367 318.71H845.227V292.97C845.227 290.33 845.557 287.8 846.327 285.49C848.307 278.78 853.917 274.05 861.397 274.05C868.437 274.05 870.197 278.67 870.197 285.49V311.23C870.197 316.51 872.397 318.71 877.677 318.71H890.987V306.94H886.587C885.047 306.94 884.167 306.06 884.167 304.52V282.63C884.167 267.78 877.017 261.29 864.587 261.29C853.257 261.29 847.207 268.22 844.787 272.95H844.567C844.567 272.95 844.787 271.74 844.787 270.53V268.88C844.787 264.92 842.367 262.61 837.417 262.61H824.547V274.49H828.947C830.487 274.49 831.367 275.26 831.367 276.91V318.71ZM896.441 290.66C896.441 306.61 907.991 320.03 926.581 320.03C940.551 320.03 949.131 311.56 949.131 311.56L943.301 301.88C943.301 301.88 936.591 308.15 927.571 308.15C919.101 308.15 911.841 302.98 910.741 293.08H949.461C949.461 293.08 949.791 289.56 949.791 287.91C949.791 273.06 940.991 261.29 924.931 261.29C908.101 261.29 896.441 273.39 896.441 290.66ZM911.181 283.4C912.721 276.36 917.781 272.07 924.931 272.07C930.651 272.07 935.271 276.69 935.491 283.4H911.181ZM963.281 318.71H977.141V296.49C977.141 293.19 977.581 290.11 978.351 287.36C980.881 279 987.701 275.59 993.641 275.59C995.621 275.59 997.051 275.81 997.051 275.81V262.06C997.051 262.06 995.731 261.84 994.521 261.84C985.941 261.84 979.231 268.22 976.701 276.25H976.481C976.481 276.25 976.701 274.82 976.701 272.73V269.43C976.701 264.7 974.171 262.61 969.221 262.61H956.461V274.49H960.861C962.401 274.49 963.281 275.26 963.281 276.91V318.71Z" fill="black"/>
<path d="M1145.42 334.92C1151.72 329.18 1167.16 315.15 1177.19 306.33C1199.88 286.41 1207.21 241.6 1207.21 241.6C1207.21 241.6 1176.48 254.81 1160.18 273.87C1160.56 270.77 1160.9 267.68 1161.17 264.59C1165.51 257.54 1176.73 239.35 1184.08 227.89C1200.43 202.39 1195.07 157.52 1195.07 157.52C1195.07 157.52 1169.68 178.45 1159.02 201.01C1158.52 197.84 1157.96 194.68 1157.34 191.55C1159.67 183.23 1164.8 165 1168.33 153.22C1176.6 125.6 1159.83 86.3 1159.83 86.3C1159.83 86.3 1142.75 111.19 1138.46 134.2C1137.11 131.36 1135.72 128.55 1134.27 125.78C1134.21 117.25 1134.13 101.15 1134.24 90.48C1134.53 63.82 1109.4 33.47 1109.4 33.47C1109.4 33.47 1101.04 58.52 1102.46 79.68C1100.29 77.25 1098.06 74.88 1095.79 72.56C1093.82 65.97 1089.42 51.16 1086.73 41.52C1080.49 19.12 1051.82 0 1051.82 0C1051.82 0 1050.35 34.51 1062.62 50.88C1064.72 53.68 1067.18 56.29 1069.78 58.67C1066.84 57.74 1063.91 57.22 1061.16 57.36C1052.8 57.8 1039.25 57.54 1039.25 57.54C1039.25 57.54 1050.05 72.28 1062.33 77.08C1072.98 81.24 1088.93 76.97 1094.13 75.37C1097.24 78.68 1100.25 82.03 1103.13 85.43C1103.57 88.05 1104.19 90.57 1105.06 92.91C1106.46 96.68 1108.3 100.34 1110.38 103.81C1107.47 101.82 1104.45 100.3 1101.42 99.56C1092.2 97.32 1077.54 92.61 1077.54 92.61C1077.54 92.61 1084.62 112.33 1096.45 121.6C1107.36 130.14 1127.76 130.19 1132.57 130.07C1132.9 130.36 1133.19 130.62 1133.43 130.83C1134.91 133.76 1136.34 136.72 1137.68 139.71C1137.46 142.11 1137.41 144.46 1137.57 146.74C1137.88 151.09 1138.69 155.46 1139.79 159.71C1137.39 156.75 1134.74 154.24 1131.85 152.54C1123.03 147.37 1109.37 137.96 1109.37 137.96C1109.37 137.96 1110.76 160.64 1120.15 173.92C1128.27 185.4 1147.21 191.68 1153.64 193.54C1154.5 198.84 1155.19 204.22 1155.7 209.69C1155.48 210.49 1155.28 211.29 1155.11 212.08C1154.16 216.58 1153.69 221.25 1153.55 225.89C1152.01 222.17 1150.09 218.83 1147.68 216.23C1140.35 208.34 1129.39 194.7 1129.39 194.7C1129.39 194.7 1124.16 218.1 1129.72 234.39C1134.01 246.97 1148.18 257.94 1155.36 262.86C1154.63 270.44 1153.63 278.17 1152.33 286.05C1150.89 289.16 1149.66 292.4 1148.61 295.68C1148.17 291.65 1147.26 287.88 1145.68 284.68C1140.87 274.97 1134.2 258.68 1134.2 258.68C1134.2 258.68 1122.72 279.76 1123.5 297.05C1124.11 310.6 1134.88 325.47 1140.3 332.13C1137.77 338.92 1134.93 345.6 1131.8 352.15C1129.15 355.07 1126.73 358.26 1124.52 361.57C1125.22 357.56 1125.4 353.66 1124.78 350.13C1122.89 339.39 1121.04 321.76 1121.04 321.76C1121.04 321.76 1104.23 338.81 1100.17 355.71C1097.01 368.87 1103.06 386.14 1106.4 394.19C1102.01 400.12 1097.38 405.87 1092.51 411.4C1089.27 413.42 1086.17 415.74 1083.23 418.23C1085.01 414.56 1086.27 410.85 1086.65 407.27C1087.82 396.37 1090.95 378.84 1090.95 378.84C1090.95 378.84 1070.17 390.47 1061.61 405.62C1054.81 417.65 1055.97 436.56 1056.93 445.04C1039.25 458.93 1019.92 470.47 999.58 479.04C1005.52 479.09 1011.47 479.21 1017.41 479.42C1034.09 471.21 1049.92 460.98 1064.58 449C1074.37 447.33 1090.38 444.63 1101.3 442.96C1130.77 438.46 1160.74 404.36 1160.74 404.36C1160.74 404.36 1130.19 399.09 1106.73 405.34C1108.68 402.78 1110.59 400.18 1112.45 397.55C1120.93 393.39 1137.69 385.21 1148.8 380C1175.98 367.27 1195.42 326.16 1195.42 326.16C1195.42 326.16 1162.88 330.07 1142.01 343.55C1143.17 340.69 1144.3 337.82 1145.37 334.91L1145.42 334.92Z" fill="#1D1D1B"/>
</svg>
