<svg width="22" height="23" viewBox="0 0 22 23" fill="none" xmlns="http://www.w3.org/2000/svg">
<path d="M21.12 0.5H0.88C0.39325 0.5 0 0.89325 0 1.38V21.62C0 22.1068 0.39325 22.5 0.88 22.5H21.12C21.6068 22.5 22 22.1068 22 21.62V1.38C22 0.89325 21.6068 0.5 21.12 0.5ZM13.3787 7.06975H17.1848V7.9965H13.3787V7.06975ZM11 14.712C10.822 15.0499 10.5678 15.3418 10.2575 15.5645C9.933 15.79 9.57275 15.955 9.1905 16.0512C8.79058 16.1584 8.37802 16.2111 7.964 16.208H3.41V6.82775H7.8375C8.28575 6.82775 8.69275 6.869 9.064 6.946C9.4325 7.023 9.746 7.155 10.01 7.33375C10.2712 7.5125 10.4775 7.75175 10.6233 8.04875C10.7662 8.343 10.8405 8.7115 10.8405 9.14875C10.8405 9.62175 10.7332 10.0122 10.5188 10.3285C10.3015 10.6447 9.988 10.9005 9.56175 11.1012C10.142 11.2662 10.5682 11.5605 10.8488 11.973C11.1348 12.391 11.275 12.8915 11.275 13.48C11.275 13.9585 11.1842 14.3682 11 14.712ZM18.667 13.26H13.761C13.761 13.7935 13.9453 14.305 14.223 14.58C14.5035 14.8523 14.905 14.9898 15.4302 14.9898C15.8097 14.9898 16.1315 14.8935 16.4065 14.7037C16.6787 14.514 16.8438 14.3133 16.9043 14.1042H18.5487C18.2847 14.921 17.8832 15.504 17.3388 15.856C16.7997 16.208 16.1397 16.384 15.3725 16.384C14.8363 16.384 14.355 16.296 13.9232 16.1282C13.508 15.966 13.134 15.7185 12.826 15.3995C12.5223 15.0719 12.2876 14.6866 12.1357 14.2665C11.968 13.8017 11.8855 13.3123 11.891 12.82C11.891 12.3112 11.9762 11.8382 12.1412 11.3982C12.4575 10.543 13.1148 9.85825 13.9535 9.5035C14.4018 9.3165 14.883 9.223 15.3698 9.2285C15.9473 9.2285 16.4478 9.3385 16.8822 9.564C17.3005 9.77933 17.6637 10.0879 17.9438 10.466C18.2215 10.8427 18.4167 11.2717 18.5405 11.7557C18.6588 12.2315 18.7 12.732 18.667 13.26ZM15.312 10.631C15.015 10.631 14.7648 10.6832 14.5723 10.785C14.3798 10.8868 14.2203 11.0133 14.0992 11.159C13.984 11.2997 13.8988 11.4626 13.849 11.6375C13.805 11.7832 13.7747 11.9318 13.7638 12.083H16.8025C16.7585 11.6073 16.5935 11.2552 16.3735 11.0078C16.1425 10.763 15.7712 10.631 15.312 10.631ZM8.47825 10.3532C8.7175 10.18 8.833 9.894 8.833 9.50075C8.84125 9.31375 8.80275 9.1295 8.72025 8.96175C8.646 8.827 8.536 8.71425 8.40125 8.6345C8.26153 8.54977 8.10635 8.49368 7.94475 8.4695C7.76875 8.4365 7.59 8.42 7.414 8.42275H5.48075V10.6145H7.5735C7.93375 10.6172 8.239 10.5292 8.47825 10.3532ZM8.80275 12.3333C8.53325 12.127 8.173 12.0252 7.72475 12.0252H5.47525V14.6102H7.68075C7.887 14.6102 8.07675 14.591 8.261 14.5525C8.44525 14.514 8.61025 14.448 8.7505 14.3545C8.89075 14.2637 9.0035 14.14 9.08875 13.9805C9.17125 13.821 9.2125 13.6175 9.2125 13.3727C9.2125 12.886 9.075 12.5422 8.80275 12.3333Z" fill="black"/>
</svg>
