<svg width="22" height="23" viewBox="0 0 22 23" fill="none" xmlns="http://www.w3.org/2000/svg">
<path d="M22 17.125V5.875C22 4.8375 21.1334 4 20.06 4H1.94004C0.866549 4 0 4.8375 0 5.875V17.125C0 18.1625 0.866549 19 1.94004 19H20.06C21.1334 19 22 18.1625 22 17.125ZM20.3057 5.7375C20.7325 6.15 20.4997 6.575 20.2669 6.7875L15.0159 11.4375L20.06 16.5125C20.2152 16.6875 20.3186 16.9625 20.1376 17.15C19.9694 17.35 19.5814 17.3375 19.4133 17.2125L13.7613 12.55L10.9935 14.9875L8.23868 12.55L2.58671 17.2125C2.41858 17.3375 2.03057 17.35 1.86243 17.15C1.68136 16.9625 1.78483 16.6875 1.94004 16.5125L6.98413 11.4375L1.7331 6.7875C1.50029 6.575 1.26749 6.15 1.6943 5.7375C2.12111 5.325 2.56085 5.525 2.92299 5.825L10.9935 12.125L19.077 5.825C19.4392 5.525 19.8789 5.325 20.3057 5.7375V5.7375Z" fill="black"/>
</svg>
