<svg width="22" height="23" viewBox="0 0 22 23" fill="none" xmlns="http://www.w3.org/2000/svg">
<path d="M10.997 7.83177C8.97722 7.83177 7.32888 9.48013 7.32888 11.5C7.32888 13.5199 8.97722 15.1682 10.997 15.1682C13.0169 15.1682 14.6652 13.5199 14.6652 11.5C14.6652 9.48013 13.0169 7.83177 10.997 7.83177ZM21.9988 11.5C21.9988 9.98097 22.0125 8.47571 21.9272 6.95943C21.8419 5.19824 21.4402 3.63519 20.1523 2.34732C18.8617 1.05669 17.3014 0.657674 15.5403 0.572367C14.0213 0.487059 12.516 0.500819 10.9998 0.500819C9.4808 0.500819 7.97556 0.487059 6.45931 0.572367C4.69815 0.657674 3.13513 1.05945 1.84728 2.34732C0.556684 3.63794 0.157672 5.19824 0.0723655 6.95943C-0.0129406 8.47846 0.000818509 9.98373 0.000818509 11.5C0.000818509 13.0163 -0.0129406 14.5243 0.0723655 16.0406C0.157672 17.8018 0.559436 19.3648 1.84728 20.6527C3.13788 21.9433 4.69815 22.3423 6.45931 22.4276C7.97831 22.5129 9.48355 22.4992 10.9998 22.4992C12.5188 22.4992 14.024 22.5129 15.5403 22.4276C17.3014 22.3423 18.8645 21.9406 20.1523 20.6527C21.4429 19.3621 21.8419 17.8018 21.9272 16.0406C22.0153 14.5243 21.9988 13.019 21.9988 11.5ZM10.997 17.1441C7.87374 17.1441 5.35309 14.6234 5.35309 11.5C5.35309 8.37664 7.87374 5.85594 10.997 5.85594C14.1203 5.85594 16.641 8.37664 16.641 11.5C16.641 14.6234 14.1203 17.1441 10.997 17.1441ZM16.8722 6.94292C16.1429 6.94292 15.554 6.35402 15.554 5.62478C15.554 4.89554 16.1429 4.30664 16.8722 4.30664C17.6014 4.30664 18.1903 4.89554 18.1903 5.62478C18.1905 5.79794 18.1565 5.96945 18.0904 6.12947C18.0242 6.28949 17.9271 6.43489 17.8047 6.55733C17.6822 6.67978 17.5369 6.77686 17.3768 6.84303C17.2168 6.90919 17.0453 6.94314 16.8722 6.94292Z" fill="black"/>
</svg>
