<svg width="22" height="23" viewBox="0 0 22 23" fill="none" xmlns="http://www.w3.org/2000/svg">
<path fill-rule="evenodd" clip-rule="evenodd" d="M2.7206e-07 2.338C2.7206e-07 1.85053 0.193646 1.38303 0.538338 1.03834C0.88303 0.693648 1.35053 0.500002 1.838 0.500002H20.16C20.4016 0.499608 20.6409 0.546865 20.8641 0.639069C21.0874 0.731273 21.2903 0.866612 21.4612 1.03734C21.6322 1.20807 21.7677 1.41083 21.8602 1.63401C21.9526 1.8572 22.0001 2.09643 22 2.338V20.66C22.0003 20.9016 21.9529 21.1409 21.8606 21.3642C21.7683 21.5875 21.6328 21.7904 21.462 21.9613C21.2912 22.1322 21.0884 22.2678 20.8651 22.3602C20.6419 22.4526 20.4026 22.5001 20.161 22.5H1.838C1.59655 22.5 1.35746 22.4524 1.1344 22.36C0.911335 22.2676 0.708671 22.1321 0.537984 21.9613C0.367297 21.7905 0.231932 21.5878 0.139623 21.3647C0.0473133 21.1416 -0.000131096 20.9025 2.7206e-07 20.661V2.338ZM8.708 8.888H11.687V10.384C12.117 9.524 13.217 8.75 14.87 8.75C18.039 8.75 18.79 10.463 18.79 13.606V19.428H15.583V14.322C15.583 12.532 15.153 11.522 14.061 11.522C12.546 11.522 11.916 12.611 11.916 14.322V19.428H8.708V8.888ZM3.208 19.291H6.416V8.75H3.208V19.29V19.291ZM6.875 5.312C6.88105 5.58668 6.83217 5.85979 6.73124 6.11532C6.63031 6.37084 6.47935 6.60364 6.28723 6.80003C6.09511 6.99643 5.8657 7.15248 5.61246 7.25901C5.35921 7.36554 5.08724 7.42042 4.8125 7.42042C4.53776 7.42042 4.26579 7.36554 4.01255 7.25901C3.7593 7.15248 3.52989 6.99643 3.33777 6.80003C3.14565 6.60364 2.99469 6.37084 2.89376 6.11532C2.79283 5.85979 2.74395 5.58668 2.75 5.312C2.76187 4.77286 2.98439 4.25979 3.36989 3.88269C3.75539 3.50558 4.27322 3.29442 4.8125 3.29442C5.35178 3.29442 5.86961 3.50558 6.25512 3.88269C6.64062 4.25979 6.86313 4.77286 6.875 5.312Z" fill="black"/>
</svg>
