<svg width="19" height="23" viewBox="0 0 19 23" fill="none" xmlns="http://www.w3.org/2000/svg">
<path d="M12.1026 15.7723V18.3627C12.1026 18.9111 11.9359 19.1853 11.6026 19.1853C11.406 19.1853 11.2137 19.0952 11.0256 18.9152V15.2199C11.2137 15.0398 11.406 14.9498 11.6026 14.9498C11.9359 14.9498 12.1026 15.224 12.1026 15.7723ZM16.4359 15.7846V16.3493H15.2821V15.7846C15.2821 15.2281 15.4744 14.9498 15.859 14.9498C16.2436 14.9498 16.4359 15.2281 16.4359 15.7846ZM4.05128 13.1083H5.42308V11.9542H1.42308V13.1083H2.76923V20.0938H4.05128V13.1083ZM7.74359 20.0938H8.88462V14.029H7.74359V18.6696C7.48718 19.0134 7.24359 19.1853 7.01282 19.1853C6.85897 19.1853 6.76923 19.0993 6.74359 18.9275C6.73504 18.9029 6.73077 18.7597 6.73077 18.4978V14.029H5.58974V18.8292C5.58974 19.2303 5.62393 19.529 5.69231 19.7254C5.79487 20.0283 6.04274 20.1797 6.4359 20.1797C6.84615 20.1797 7.28205 19.9301 7.74359 19.4308V20.0938ZM13.2436 18.2768V15.8583C13.2436 15.2608 13.2051 14.8557 13.1282 14.6429C12.9829 14.1845 12.6795 13.9554 12.2179 13.9554C11.7906 13.9554 11.3932 14.1763 11.0256 14.6183V11.9542H9.88462V20.0938H11.0256V19.5045C11.4103 19.9546 11.8077 20.1797 12.2179 20.1797C12.6795 20.1797 12.9829 19.9546 13.1282 19.5045C13.2051 19.2835 13.2436 18.8743 13.2436 18.2768ZM17.5769 18.154V17.9944H16.4103C16.4103 18.4118 16.4017 18.6615 16.3846 18.7433C16.3248 19.0379 16.1538 19.1853 15.8718 19.1853C15.4786 19.1853 15.2821 18.9029 15.2821 18.3382V17.2701H17.5769V16.0056C17.5769 15.359 17.4615 14.8843 17.2308 14.5815C16.8974 14.1641 16.4444 13.9554 15.8718 13.9554C15.2906 13.9554 14.8333 14.1641 14.5 14.5815C14.2607 14.8843 14.141 15.359 14.141 16.0056V18.1295C14.141 18.776 14.265 19.2507 14.5128 19.5536C14.8462 19.971 15.3077 20.1797 15.8974 20.1797C16.5128 20.1797 16.9744 19.9628 17.2821 19.529C17.4359 19.308 17.5256 19.0871 17.5513 18.8661C17.5684 18.7924 17.5769 18.5551 17.5769 18.154ZM9.78205 6.94531V4.36719C9.78205 3.80246 9.59829 3.52009 9.23077 3.52009C8.86325 3.52009 8.67949 3.80246 8.67949 4.36719V6.94531C8.67949 7.51823 8.86325 7.80469 9.23077 7.80469C9.59829 7.80469 9.78205 7.51823 9.78205 6.94531ZM19 16.1652C19 18.0804 18.8889 19.5126 18.6667 20.4621C18.547 20.9449 18.2991 21.3501 17.9231 21.6775C17.547 22.0048 17.1111 22.1931 16.6154 22.2422C15.0427 22.4141 12.6709 22.5 9.5 22.5C6.32906 22.5 3.95726 22.4141 2.38462 22.2422C1.88889 22.1931 1.45085 22.0048 1.07051 21.6775C0.690171 21.3501 0.444444 20.9449 0.333333 20.4621C0.111111 19.5454 0 18.1131 0 16.1652C0 14.25 0.111111 12.8177 0.333333 11.8683C0.452991 11.3854 0.700855 10.9803 1.07692 10.6529C1.45299 10.3255 1.89316 10.1332 2.39744 10.0759C3.96154 9.9122 6.32906 9.83036 9.5 9.83036C12.6709 9.83036 15.0427 9.9122 16.6154 10.0759C17.1111 10.1332 17.5491 10.3255 17.9295 10.6529C18.3098 10.9803 18.5556 11.3854 18.6667 11.8683C18.8889 12.785 19 14.2173 19 16.1652ZM6.20513 0.5H7.51282L5.96154 5.39844V8.72545H4.67949V5.39844C4.55983 4.79278 4.29915 3.92522 3.89744 2.79576C3.5812 1.95275 3.30342 1.1875 3.0641 0.5H4.42308L5.33333 3.72879L6.20513 0.5ZM10.9487 4.58817V6.73661C10.9487 7.39955 10.8291 7.88244 10.5897 8.18527C10.265 8.60268 9.81197 8.81138 9.23077 8.81138C8.65812 8.81138 8.2094 8.60268 7.88462 8.18527C7.6453 7.87426 7.52564 7.39137 7.52564 6.73661V4.58817C7.52564 3.93341 7.6453 3.45461 7.88462 3.15179C8.2094 2.73438 8.65812 2.52567 9.23077 2.52567C9.81197 2.52567 10.265 2.73438 10.5897 3.15179C10.8291 3.45461 10.9487 3.93341 10.9487 4.58817ZM15.2436 2.59933V8.72545H14.0769V8.05022C13.6239 8.55766 13.1838 8.81138 12.7564 8.81138C12.3632 8.81138 12.1111 8.65997 12 8.35714C11.9316 8.16071 11.8974 7.85379 11.8974 7.43638V2.59933H13.0641V7.10491C13.0641 7.375 13.0684 7.51823 13.0769 7.5346C13.1026 7.71466 13.1923 7.80469 13.3462 7.80469C13.5769 7.80469 13.8205 7.62872 14.0769 7.27679V2.59933H15.2436Z" fill="black"/>
</svg>
